<svg id="Layer_1" data-name="Layer 1" xmlns="http://www.w3.org/2000/svg" viewBox="0 0 500 218.67"><path d="M450.7-.6c-.55.18-23.78-.13-24.3,0V216.47c32.41,4.68,72-9.26,71.8-47.51C490.32,128.4,526.17-4.83,450.7-.6Zm9.39,28.72c10.69,0,10.69,16.56,0,16.57C449.62,44.7,449,28,460.09,28.12Zm8.29,42.53c0,10.69-16.56,10.69-16.57,0S468.36,60,468.38,70.65ZM434.69,53.53c0-10.69,16.55-10.69,16.57,0C451.27,64,434.6,64.62,434.69,53.53Zm13.8,111c-11.5.26-11.5-18,0-17.68C460,146.61,460,164.82,448.49,164.55Zm11.6-30.38c-23.6.21-23.6-36.67,0-36.46C483.76,97.45,483.65,134.81,460.09,134.17Zm17.12-71.8c-10.68,0-10.68-16.56,0-16.57S487.9,62.35,477.21,62.37Z" transform="translate(0 1.33)" fill="#fff"/><path d="M71.25-.6C40.13-4.38-.33,6,0,43.59V168.41c-.16,37.86,39,52.27,71.25,47.5h.55V-.6ZM38.11,35.85c23.6-.2,23.6,36.67,0,36.46C14.51,72.52,14.51,35.64,38.11,35.85ZM46.4,97.16c.08,11.09-16.59,10.47-16.57,0C29.74,86.07,46.41,86.69,46.4,97.16ZM21,123.12c-11.09.09-10.47-16.58,0-16.57C31.68,106.57,31.68,123.11,21,123.12Zm8.28,8.29c-.08-11.09,16.59-10.47,16.57,0C45.83,142.09,29.29,142.09,29.27,131.41Zm27.62,29.82H43.64v-12.7H56.89Zm-2.21-38.11c-11.09.09-10.47-16.58,0-16.57S65.77,123.21,54.68,123.12Z" transform="translate(0 1.33)" fill="#fff"/><path d="M77.88-.6V216.47H420.32V-.6ZM384.42,193.27H113.78V22.05H385V193.27Z" transform="translate(0 1.33)" fill="#fff"/></svg>